<?xml version="1.0" encoding="UTF-8"?>
<svg version="1.1" xmlns="http://www.w3.org/2000/svg" width="533" height="533">
<path d="M0 0 C0.9450238 -0.00701431 1.89004761 -0.01402863 2.8637085 -0.02125549 C5.89486512 -0.03865859 8.92582651 -0.04510725 11.95703125 -0.046875 C13.50911789 -0.04788712 13.50911789 -0.04788712 15.09255981 -0.04891968 C29.89755661 -0.03355271 44.2048159 0.33388183 58.76953125 3.203125 C59.64770508 3.3587793 60.52587891 3.51443359 61.43066406 3.67480469 C104.69192445 11.36330822 145.67471488 30.62810408 179.76953125 58.203125 C180.30336426 58.63254395 180.83719727 59.06196289 181.38720703 59.50439453 C196.14808779 71.48136701 210.30888855 85.00811558 221.76953125 100.203125 C222.6929118 101.37586585 223.61747988 102.54767225 224.54296875 103.71875 C232.56910732 113.99983265 239.34552663 124.86326418 245.76953125 136.203125 C246.21570801 136.98558594 246.66188477 137.76804688 247.12158203 138.57421875 C260.34633925 161.99275113 269.21377158 187.70308002 274.58203125 214.015625 C274.77700195 214.96808105 274.97197266 215.92053711 275.17285156 216.90185547 C278.29644801 233.16714386 279.14701758 249.29649403 279.08203125 265.828125 C279.07929703 267.27679459 279.07929703 267.27679459 279.07650757 268.75473022 C279.02994954 283.42960704 278.47505498 297.745652 275.76953125 312.203125 C275.61387695 313.0998291 275.45822266 313.9965332 275.29785156 314.92041016 C268.31189971 354.48655463 251.40233824 397.81107321 224.33203125 428.078125 C220.89144675 432.50173364 220.29354119 437.96583846 219.23876953 443.33813477 C217.01841357 454.51038372 212.97679157 464.19127564 204.76953125 472.203125 C204.06828125 473.151875 203.36703125 474.100625 202.64453125 475.078125 C192.34133407 487.51851788 174.05116961 492.06830316 158.76953125 494.203125 C158.03605469 494.25388184 157.30257813 494.30463867 156.546875 494.35693359 C150.88934285 494.77667822 147.1690653 496.20567089 142.39453125 499.203125 C140.99248037 500.03096786 139.58740192 500.85369983 138.1796875 501.671875 C137.45539551 502.09339844 136.73110352 502.51492188 135.98486328 502.94921875 C113.89531742 515.4521841 89.5095922 523.06741161 64.76953125 528.203125 C63.98094727 528.37038086 63.19236328 528.53763672 62.37988281 528.70996094 C-4.94767761 542.63051033 -76.73257727 526.37734057 -134.109375 489.6328125 C-145.77685064 481.95155892 -156.56081915 473.15113557 -166.7109375 463.5703125 C-168.8127172 461.59561716 -170.95289785 459.73422438 -173.16796875 457.890625 C-197.30057116 436.86221626 -215.63945651 407.89447091 -229.23046875 379.203125 C-229.52131348 378.60016602 -229.8121582 377.99720703 -230.11181641 377.37597656 C-245.45670411 345.32221115 -253.11591174 309.62513993 -254.23046875 274.203125 C-254.27171875 272.98496094 -254.31296875 271.76679688 -254.35546875 270.51171875 C-255.42314402 206.51793236 -233.10116708 141.90085913 -190.6105957 93.77172852 C-189.62241928 92.64860212 -188.64272492 91.51799044 -187.66870117 90.38256836 C-176.64059001 77.58284757 -164.61053722 65.43074058 -150.94287109 55.45800781 C-149.13251567 54.13134302 -147.34709923 52.77514186 -145.5625 51.4140625 C-137.13369302 45.03541693 -128.45966975 39.35202616 -119.23046875 34.203125 C-118.00142822 33.51283203 -118.00142822 33.51283203 -116.74755859 32.80859375 C-81.34648195 13.11751608 -40.78481352 0.20336034 0 0 Z " fill="#F6F5F3" transform="translate(254.23046875,-0.203125)"/>
<path d="M0 0 C84.48 0 168.96 0 256 0 C256 14 256 14 253.35717773 18.21630859 C252.16780832 19.3968608 250.94093527 20.5405587 249.68359375 21.6484375 C249.03431412 22.27553619 248.38503448 22.90263489 247.71607971 23.54873657 C245.65399661 25.52667538 243.54928393 27.45035455 241.4375 29.375 C239.3629804 31.33161891 237.29832592 33.29827282 235.23390198 35.26553345 C233.95317017 36.47867618 232.66474428 37.68377281 231.36705017 38.87875366 C227.56864606 42.39065595 224.13141411 46.06878555 220.7620697 49.99255371 C217.84773178 53.31272705 214.7253774 56.41734723 211.59765625 59.53515625 C210.91626083 60.21750839 210.23486542 60.89986053 209.53282166 61.60289001 C208.10294259 63.03344437 206.67182089 64.46275767 205.23950195 65.89086914 C203.06802289 68.05699074 200.90193675 70.22840174 198.73632812 72.40039062 C197.33625798 73.79979987 195.93587762 75.19889884 194.53515625 76.59765625 C193.89844498 77.23639175 193.2617337 77.87512726 192.60572815 78.53321838 C189.65115855 81.47270492 186.66568393 84.3172524 183.48986816 87.01707458 C177.90596061 91.88373677 172.68435641 97.11905247 167.42749023 102.33203125 C166.28198915 103.46469445 165.13633985 104.59720778 163.99055481 105.72958374 C153.61160242 115.9934603 143.26130628 126.28644616 132.91757107 136.58580017 C125.27843139 144.19159939 117.62633817 151.78385685 109.95682758 159.35903263 C104.55343781 164.6981928 99.16535415 170.05249798 93.78837162 175.41825008 C90.57964002 178.61941587 87.36443168 181.8133894 84.1324749 184.99111938 C81.0984958 187.97477211 78.08385433 190.9766652 75.08311272 193.99373245 C73.97863175 195.09760853 72.86726363 196.19464238 71.7486763 197.28422165 C70.22320394 198.77217068 68.7243918 200.28271746 67.22972107 201.80151367 C65.96078837 203.06133308 65.96078837 203.06133308 64.66622066 204.34660339 C62.62823356 207.01968208 62.62823356 207.01968208 63.23564243 210.8249054 C63.48788043 211.87268661 63.74011843 212.92046783 64 214 C69.52718448 209.27911588 74.77727133 204.36303332 79.9026947 199.21083069 C80.65611462 198.45755963 81.40953453 197.70428858 82.18578535 196.92819113 C84.68995988 194.42332645 87.19054967 191.91491447 89.69116211 189.40649414 C91.49342945 187.60230621 93.29592566 185.79834687 95.09863281 183.99459839 C98.96923528 180.12084252 102.83833735 176.24559783 106.70612907 172.36903572 C112.29878354 166.7637925 117.89470578 161.1618206 123.4915101 155.56072133 C132.57430847 146.47086965 141.65523446 137.37915007 150.73461914 128.28588867 C151.27711532 127.74256468 151.8196115 127.19924069 152.37854696 126.63945233 C156.23157943 122.78051627 160.08454548 118.92151389 163.9375 115.0625 C168.35094327 110.64212173 172.76442193 106.2217788 177.17797852 101.80151367 C177.72193152 101.25673255 178.26588451 100.71195142 178.82632094 100.15066177 C187.88186227 91.0814558 196.9393515 82.01419765 205.99824339 72.94833845 C211.58523788 67.35685573 217.17044271 61.7635965 222.75337715 56.16805988 C227.02085842 51.89119194 231.29084208 47.6168317 235.56177521 43.34341049 C237.31831881 41.58498511 239.07399305 39.82569083 240.82876015 38.06549263 C243.21229791 35.67480639 245.59883729 33.2871587 247.9861908 30.90028381 C248.68986453 30.19301511 249.39353827 29.48574641 250.11853546 28.75704533 C250.75305431 28.12390083 251.38757316 27.49075633 252.04131985 26.83842564 C252.86811124 26.01025155 252.86811124 26.01025155 253.71160549 25.16534668 C255 24 255 24 256 24 C258.73462014 64.32092226 258.73462014 64.32092226 250.87915039 73.36132812 C248.35838051 75.66501103 245.8283666 77.77943658 242.94458008 79.61425781 C240.33109421 81.47667411 238.23532871 83.70037571 236 86 C234.31556423 87.67364024 232.63065022 89.34679926 230.9453125 91.01953125 C229.49911726 92.45834458 228.05340855 93.89764481 226.60791016 95.3371582 C225.623788 96.31625767 224.63876938 97.29445695 223.65283203 98.27172852 C216.99999661 104.83081523 216.99999661 104.83081523 210.7421875 111.76171875 C204.30533299 119.28226081 196.99049706 126.05969472 189.9609375 133.01855469 C180.52706697 142.30503797 180.52706697 142.30503797 171.65625 152.12109375 C167.18168289 157.19719464 162.2010241 161.83182701 157.3828125 166.578125 C153.7388676 170.18884244 150.12855813 173.7708293 146.8125 177.6875 C140.34601884 185.22920402 133.01571781 192.03472763 125.9609375 199.01855469 C117.47979281 207.27293977 117.47979281 207.27293977 109.5 216 C103.67906923 222.65249231 97.25055553 228.74944447 91 235 C172.675 235.495 172.675 235.495 256 236 C256 254.48 256 272.96 256 292 C256.66 292.33 257.32 292.66 258 293 C242.68925239 306.79773863 226.46121959 318.50696823 208.70727539 328.96948242 C207.10961475 329.93383614 205.55272659 330.96484894 204 332 C202.68 332 201.36 332 200 332 C200 332.66 200 333.32 200 334 C179.94628586 344.61411334 179.94628586 344.61411334 169 343 C166.46550061 342.20513012 164.36838849 341.23568095 162 340 C162 339.34 162 338.68 162 338 C159.34771188 336.92474806 156.71631546 335.90543849 154 335 C154 334.34 154 333.68 154 333 C153.195625 332.90138672 153.195625 332.90138672 152.375 332.80078125 C149.00057562 331.66302303 146.64488834 329.48927624 144 327.1875 C143.43837158 326.70482666 142.87674316 326.22215332 142.2980957 325.72485352 C138.13079278 322.09556762 134.11690504 318.3223607 130.1875 314.4375 C129.40536133 313.66925903 129.40536133 313.66925903 128.60742188 312.88549805 C125 309.24687222 125 309.24687222 125 307 C124.34 307 123.68 307 123 307 C120.01362252 303.83262995 118.35528181 301.38180897 118 297 C118.33 296.34 118.66 295.68 119 295 C113.06 295 107.12 295 101 295 C100.67 295.99 100.34 296.98 100 298 C99.67 297.34 99.34 296.68 99 296 C66.33 295.67 33.66 295.34 0 295 C0 279 0 279 3.25390625 274.21875 C4.65094571 272.93519554 6.08869528 271.69462586 7.5625 270.5 C8.98276054 269.24216633 10.40074344 267.98175608 11.81640625 266.71875 C12.45006104 266.19216797 13.08371582 265.66558594 13.73657227 265.12304688 C15.74720682 263.23711461 17.49727139 261.31341128 19.29272461 259.22705078 C22.82506735 255.13570231 26.59918991 251.38525231 30.5 247.6484375 C31.89541244 246.28996706 33.28991864 244.93056523 34.68359375 243.5703125 C36.85255679 241.45716655 39.02614418 239.35001407 41.21533203 237.2578125 C43.34724965 235.21648359 45.45628211 233.15372927 47.5625 231.0859375 C48.55443359 230.15290298 48.55443359 230.15290298 49.56640625 229.20101929 C51.25194124 227.52606997 52.7293879 226.00828594 54 224 C54.0805501 220.64669438 54.0805501 220.64669438 53 218 C46.54263543 223.44800352 40.57335083 229.31041497 34.62890625 235.30859375 C33.65654071 236.28537451 32.68387384 237.26185537 31.71092224 238.23805237 C28.65858946 241.30169764 25.61027392 244.36932037 22.5625 247.4375 C19.00394611 251.01967107 15.44375597 254.60018526 11.87937737 258.17656136 C10.45639621 259.60603539 9.03644894 261.03847737 7.61659241 262.47105408 C6.76157639 263.32937332 5.90656036 264.18769257 5.02563477 265.07202148 C4.27032974 265.83256332 3.51502472 266.59310516 2.73683167 267.37669373 C1 269 1 269 0 269 C-0.29991674 263.54189978 -0.5158183 258.08872572 -0.65917969 252.62426758 C-0.71900226 250.77217991 -0.80050477 248.9206461 -0.90527344 247.07055664 C-1.84212305 230.08326873 -1.84212305 230.08326873 3.67018127 223.60507202 C5.77525334 221.46026121 7.97236526 219.46388991 10.25958252 217.51528931 C12.61631678 215.46340563 14.77758285 213.2466806 16.96078491 211.01322937 C18.6099256 209.32764855 20.27823848 207.66385761 21.95507812 206.00585938 C22.7837439 205.18637817 22.7837439 205.18637817 23.62915039 204.3503418 C24.46240845 203.52723511 24.46240845 203.52723511 25.3125 202.6875 C34.64921607 193.49485524 34.64921607 193.49485524 43.44116211 183.78588867 C46.18299933 180.64469223 49.15696354 177.73813594 52.125 174.8125 C53.01638672 173.92788086 53.01638672 173.92788086 53.92578125 173.02539062 C55.08705071 171.87309345 56.24929145 170.72177413 57.41259766 169.5715332 C58.7897056 168.2081921 60.16100819 166.83899181 61.53125 165.46875 C63.37714628 163.62285372 65.22887552 161.78381398 67.0859375 159.94921875 C68.18232437 158.86201215 69.27867808 157.7747721 70.375 156.6875 C71.18324219 155.89182617 71.18324219 155.89182617 72.0078125 155.08007812 C74.79827901 152.30622153 77.46294924 149.48948147 80.0078125 146.48828125 C86.38711161 139.11005999 93.53810153 132.41014785 100.46630859 125.55419922 C109.84608589 116.31572066 109.84608589 116.31572066 118.66992188 106.55273438 C120.50023051 104.41603046 122.48162781 102.45812227 124.5 100.5 C127.26560408 97.77170593 129.91287031 95.01483166 132.4375 92.0625 C136.04871922 87.83949776 139.98605126 83.98037898 143.9609375 80.1015625 C146.04126091 78.16903954 146.04126091 78.16903954 147 76 C138.68021566 76.29747505 138.68021566 76.29747505 132 81 C132.66 79.35 133.32 77.7 134 76 C134.66 76 135.32 76 136 76 C137.17241596 69.38946088 137.17241596 69.38946088 135.75 63 C133.57042318 60.50905507 131.93267875 59.1010734 128.58498096 58.73828697 C127.6217073 58.73275621 126.65843363 58.72722546 125.66596985 58.7215271 C124.55959167 58.71036362 123.4532135 58.69920013 122.31330872 58.68769836 C120.49206734 58.68445808 120.49206734 58.68445808 118.6340332 58.68115234 C117.35587738 58.67110672 116.07772156 58.6610611 114.76083374 58.65071106 C111.25493763 58.62338063 107.74908178 58.60825272 104.24310708 58.59528303 C100.57952008 58.57966575 96.91601544 58.55287109 93.25248718 58.5272522 C86.31463004 58.4804395 79.37675744 58.44370749 72.43882293 58.41057932 C63.06390823 58.36523373 53.68909533 58.30435226 44.31426525 58.24433136 C29.5428945 58.15017035 14.77149485 58.07679803 0 58 C0 38.86 0 19.72 0 0 Z " fill="#1D81B5" transform="translate(139,119)"/>
<path d="M0 0 C84.48 0 168.96 0 256 0 C256 14 256 14 253.35717773 18.21630859 C252.16780832 19.3968608 250.94093527 20.5405587 249.68359375 21.6484375 C249.03431412 22.27553619 248.38503448 22.90263489 247.71607971 23.54873657 C245.65399661 25.52667538 243.54928393 27.45035455 241.4375 29.375 C239.3629804 31.33161891 237.29832592 33.29827282 235.23390198 35.26553345 C233.95317017 36.47867618 232.66474428 37.68377281 231.36705017 38.87875366 C227.56864606 42.39065595 224.13141411 46.06878555 220.7620697 49.99255371 C217.84773178 53.31272705 214.7253774 56.41734723 211.59765625 59.53515625 C210.91626083 60.21750839 210.23486542 60.89986053 209.53282166 61.60289001 C208.10294259 63.03344437 206.67182089 64.46275767 205.23950195 65.89086914 C203.06802289 68.05699074 200.90193675 70.22840174 198.73632812 72.40039062 C197.33625798 73.79979987 195.93587762 75.19889884 194.53515625 76.59765625 C193.89844498 77.23639175 193.2617337 77.87512726 192.60572815 78.53321838 C189.57248465 81.55097719 186.49867804 84.4664151 183.24864101 87.25036716 C179.09094958 90.87299985 175.17481703 94.69075416 171.28712463 98.59934998 C170.55412248 99.33220327 169.82112033 100.06505656 169.06590599 100.82011753 C166.63082878 103.25588461 164.19933637 105.69519793 161.76782227 108.13452148 C160.01481543 109.889449 158.26157966 111.64414786 156.50813293 113.39863586 C152.74393474 117.16598696 148.98123674 120.9348267 145.21985054 124.70498466 C139.78104254 130.15638342 134.33896503 135.60450904 128.89600586 141.05176271 C120.06277863 149.89204261 111.23142395 158.73419044 102.40161133 167.57788086 C101.87406822 168.10625178 101.34652511 168.6346227 100.80299585 169.17900486 C97.05611581 172.93178856 93.3093022 176.68463858 89.5625 180.4375 C85.27031335 184.73662187 80.97809116 189.03570824 76.68579102 193.3347168 C76.15677299 193.86456295 75.62775497 194.39440909 75.0827061 194.94031119 C66.27576753 203.76091443 57.46688101 212.57956981 48.65659183 221.39682633 C43.2231445 226.83476174 37.79148695 232.27447339 32.36210006 237.71646292 C28.21212449 241.8758252 24.05964501 246.03268121 19.90621758 250.18859673 C18.19805065 251.89864539 16.4907531 253.60956294 14.78436279 255.32138443 C12.46651087 257.64638501 10.14565768 259.96834633 7.82398987 262.28953552 C7.13977087 262.97734948 6.45555187 263.66516344 5.75059897 264.37382025 C1.11409324 269 1.11409324 269 0 269 C-0.29991674 263.54189978 -0.5158183 258.08872572 -0.65917969 252.62426758 C-0.71900226 250.77217991 -0.80050477 248.9206461 -0.90527344 247.07055664 C-1.84212305 230.08326873 -1.84212305 230.08326873 3.67018127 223.60507202 C5.77525334 221.46026121 7.97236526 219.46388991 10.25958252 217.51528931 C12.61631678 215.46340563 14.77758285 213.2466806 16.96078491 211.01322937 C18.6099256 209.32764855 20.27823848 207.66385761 21.95507812 206.00585938 C22.7837439 205.18637817 22.7837439 205.18637817 23.62915039 204.3503418 C24.46240845 203.52723511 24.46240845 203.52723511 25.3125 202.6875 C34.64921607 193.49485524 34.64921607 193.49485524 43.44116211 183.78588867 C46.18299933 180.64469223 49.15696354 177.73813594 52.125 174.8125 C53.01638672 173.92788086 53.01638672 173.92788086 53.92578125 173.02539062 C55.08705071 171.87309345 56.24929145 170.72177413 57.41259766 169.5715332 C58.7897056 168.2081921 60.16100819 166.83899181 61.53125 165.46875 C63.37714628 163.62285372 65.22887552 161.78381398 67.0859375 159.94921875 C68.18232437 158.86201215 69.27867808 157.7747721 70.375 156.6875 C71.18324219 155.89182617 71.18324219 155.89182617 72.0078125 155.08007812 C74.79827901 152.30622153 77.46294924 149.48948147 80.0078125 146.48828125 C86.38711161 139.11005999 93.53810153 132.41014785 100.46630859 125.55419922 C109.84608589 116.31572066 109.84608589 116.31572066 118.66992188 106.55273438 C120.50023051 104.41603046 122.48162781 102.45812227 124.5 100.5 C127.26560408 97.77170593 129.91287031 95.01483166 132.4375 92.0625 C136.04871922 87.83949776 139.98605126 83.98037898 143.9609375 80.1015625 C146.04126091 78.16903954 146.04126091 78.16903954 147 76 C138.68021566 76.29747505 138.68021566 76.29747505 132 81 C132.66 79.35 133.32 77.7 134 76 C134.66 76 135.32 76 136 76 C137.17241596 69.38946088 137.17241596 69.38946088 135.75 63 C133.57042318 60.50905507 131.93267875 59.1010734 128.58498096 58.73828697 C127.6217073 58.73275621 126.65843363 58.72722546 125.66596985 58.7215271 C124.55959167 58.71036362 123.4532135 58.69920013 122.31330872 58.68769836 C120.49206734 58.68445808 120.49206734 58.68445808 118.6340332 58.68115234 C117.35587738 58.67110672 116.07772156 58.6610611 114.76083374 58.65071106 C111.25493763 58.62338063 107.74908178 58.60825272 104.24310708 58.59528303 C100.57952008 58.57966575 96.91601544 58.55287109 93.25248718 58.5272522 C86.31463004 58.4804395 79.37675744 58.44370749 72.43882293 58.41057932 C63.06390823 58.36523373 53.68909533 58.30435226 44.31426525 58.24433136 C29.5428945 58.15017035 14.77149485 58.07679803 0 58 C0 38.86 0 19.72 0 0 Z " fill="#1C2C5F" transform="translate(139,119)"/>
<path d="M0 0 C3.70027269 1.27429147 7.2466438 2.82904132 10.8125 4.4375 C11.83496826 4.8927002 12.85743652 5.34790039 13.91088867 5.81689453 C28.75776392 12.50559711 42.45094848 20.17340647 55.81445312 29.48583984 C57.97034684 30.97945611 60.14721525 32.43777499 62.328125 33.89453125 C63.6783574 34.82367206 65.02737565 35.7545805 66.375 36.6875 C66.98746582 37.0901709 67.59993164 37.4928418 68.23095703 37.90771484 C73.03950967 41.3237823 75.54564555 45.26988852 77 51 C77.26375752 54.67021079 76.93085202 58.16463997 76.5 61.8125 C76.396875 62.83931885 76.29375 63.8661377 76.1875 64.92407227 C75.06859285 75.52110841 73.50950748 86.06573812 71.92578125 96.6015625 C71.1960058 101.50320906 70.642819 106.37904355 70.1875 111.3125 C65.00508047 156.47996677 48.3700939 203.04886464 26.75 242.69140625 C24.95084654 245.87408647 24.95084654 245.87408647 24 249 C23.34 249 22.68 249 22 249 C21.77828125 249.81082031 21.5565625 250.62164062 21.328125 251.45703125 C19.65266341 255.92657142 17.31870025 259.6804102 14.75 263.6875 C14.22567383 264.51113037 13.70134766 265.33476074 13.16113281 266.18334961 C3.0591603 281.83962535 -8.26462761 296.82768073 -20.81640625 310.59765625 C-23.48217654 313.53048046 -26.08756595 316.51277842 -28.6875 319.50390625 C-29.43549316 320.35652941 -30.19798378 321.19798378 -31 322 C-33.86091818 322.09522418 -36.69763621 322.12553326 -39.55883789 322.11352539 C-40.90504967 322.11374443 -40.90504967 322.11374443 -42.27845764 322.1139679 C-45.25988134 322.11326842 -48.2412434 322.10547441 -51.22265625 322.09765625 C-53.28388942 322.09579219 -55.34512304 322.09436823 -57.40635681 322.09336853 C-62.8430401 322.08954237 -68.27969686 322.07971126 -73.71636963 322.06866455 C-79.25947714 322.05845253 -84.80258892 322.05387136 -90.34570312 322.04882812 C-101.23048043 322.03808908 -112.11523802 322.02101149 -123 322 C-122.04126607 320.87533102 -121.08166157 319.75140413 -120.12168884 318.62779236 C-119.58740233 318.00182631 -119.05311583 317.37586027 -118.50263882 316.73092556 C-116.86588112 314.84550525 -115.16289006 313.06292562 -113.37890625 311.31640625 C-112.75306641 310.69830078 -112.12722656 310.08019531 -111.48242188 309.44335938 C-110.20641994 308.19331882 -108.93037852 306.94331857 -107.65429688 305.69335938 C-104.63165424 302.70799497 -101.71046414 299.70791625 -98.96484375 296.46484375 C-92.42939837 288.88446298 -85.06881779 282.0178383 -77.9609375 274.98144531 C-68.52706697 265.69496203 -68.52706697 265.69496203 -59.65625 255.87890625 C-55.18168289 250.80280536 -50.2010241 246.16817299 -45.3828125 241.421875 C-41.7388676 237.81115756 -38.12855813 234.2291707 -34.8125 230.3125 C-28.34601884 222.77079598 -21.01571781 215.96527237 -13.9609375 208.98144531 C-4.49983307 199.67083132 -4.49983307 199.67083132 4.39746094 189.82958984 C7.7764378 185.97187311 11.48087991 182.41733853 15.125 178.8125 C15.91003906 178.03197266 16.69507813 177.25144531 17.50390625 176.44726562 C19.01026757 174.94979514 20.51762004 173.45332081 22.02612305 171.95800781 C23.63456081 170.36250121 25.23922407 168.76349447 26.83984375 167.16015625 C28.15691408 165.84308592 29.47866094 164.53064348 30.80859375 163.2265625 C31.34613281 162.69804687 31.88367188 162.16953125 32.4375 161.625 C32.97246094 161.10164062 33.50742187 160.57828125 34.05859375 160.0390625 C34.69925781 159.36617187 35.33992187 158.69328125 36 158 C36.73333809 157.30762993 36.73333809 157.30762993 37.48149109 156.60127258 C41.42900402 152.56539343 42.68296976 149.7428974 42.67977905 144.10829163 C42.64881134 143.26946945 42.61784363 142.43064728 42.5859375 141.56640625 C42.57744781 140.68846909 42.56895813 139.81053192 42.56021118 138.9059906 C42.52683419 136.12353663 42.45159001 133.34406597 42.375 130.5625 C42.34487985 128.6673598 42.31750765 126.77217381 42.29296875 124.87695312 C42.22709507 120.25016643 42.12368729 115.62558757 42 111 C41.60084118 111.39991827 41.20168235 111.79983653 40.7904278 112.21187353 C17.15589949 135.89111545 -6.48381467 159.56516623 -30.13031843 183.23244908 C-32.96679978 186.07143198 -35.80323757 188.9104584 -38.63964844 191.74951172 C-39.20435001 192.31473791 -39.76905158 192.8799641 -40.35086532 193.46231836 C-49.50567129 202.62583735 -58.65694008 211.79288102 -67.80691652 220.96122211 C-77.18911695 230.36209668 -86.57508531 239.75919675 -95.96459448 249.15277147 C-101.76270669 254.95363391 -107.55782638 260.75745355 -113.34920539 266.56503832 C-117.78328562 271.01089666 -122.22258802 275.45150567 -126.66391182 279.89012718 C-128.49024385 281.71701214 -130.31484612 283.54562813 -132.13763618 285.37604713 C-134.61530639 287.86358265 -137.09897026 290.34497004 -139.58432007 292.8248291 C-140.67866539 293.92791294 -140.67866539 293.92791294 -141.79511869 295.05328131 C-142.45746255 295.71164307 -143.11980641 296.37000484 -143.8022213 297.04831696 C-144.375599 297.62245409 -144.9489767 298.19659123 -145.53972948 298.78812647 C-147 300 -147 300 -149 300 C-149.66 297.69 -150.32 295.38 -151 293 C-135.10401631 277.08062925 -119.20515011 261.16414243 -103.3028717 245.25105953 C-95.91881216 237.86184936 -88.53568955 230.47170759 -81.15478516 223.0793457 C-74.71966134 216.63423733 -68.28276638 210.19090397 -61.84376144 203.74967295 C-58.43619493 200.34080574 -55.02950624 196.9310718 -51.62493896 193.51920891 C-48.4162172 190.30366739 -45.20512089 187.09051599 -41.992239 183.87913132 C-40.81755259 182.70417125 -39.64371388 181.52836292 -38.47081947 180.351614 C-33.01752334 174.88128669 -27.57609943 169.44619503 -21.67686558 164.44947052 C-18.52934024 161.7287723 -15.61922083 158.76169831 -12.68359375 155.81640625 C-12.02343765 155.15720688 -11.36328156 154.49800751 -10.68312073 153.8188324 C-9.29964494 152.43603165 -7.91740917 151.05198924 -6.53637695 149.66674805 C-4.44268331 147.56769657 -2.34370126 145.4740406 -0.24414062 143.38085938 C1.10969571 142.02636214 2.46322175 140.67155469 3.81640625 139.31640625 C4.74169884 138.39415001 4.74169884 138.39415001 5.6856842 137.45326233 C8.76797779 134.35462011 11.72702584 131.20055137 14.58032227 127.88891602 C17.51338254 124.49658451 20.57935037 121.47662239 23.8984375 118.4609375 C24.96663002 117.45893211 26.0329841 116.45496388 27.09765625 115.44921875 C28.73490743 113.90420708 30.37802302 112.37229325 32.05517578 110.87060547 C33.70169324 109.38994512 35.3008502 107.86906738 36.8984375 106.3359375 C37.85411621 105.45470215 38.80979492 104.5734668 39.79443359 103.66552734 C43.1552625 98.70676994 43.1552625 98.70676994 43 86 C-41.48 86 -125.96 86 -213 86 C-213 85.67 -213 85.34 -213 85 C-149.97 85 -86.94 85 -22 85 C-16.96299615 64.85198458 -12.24903735 45.09034543 -11.8359375 24.26953125 C-11.79569458 22.51406982 -11.79569458 22.51406982 -11.75463867 20.72314453 C-11.7106275 18.40543634 -11.68915026 16.08716638 -11.69262695 13.76904297 C-11.55513262 5.83519952 -11.55513262 5.83519952 -8.83203125 1.73828125 C-5.29308056 -0.43390228 -4.10460034 -0.71985441 0 0 Z " fill="#AA8420" transform="translate(352,33)"/>
<path d="M0 0 C13.15720831 3.22723977 25.52472511 27.03356969 32.3125 37.8125 C32.837229 38.63403564 32.837229 38.63403564 33.37255859 39.47216797 C39.95335754 49.82336737 45.35827081 60.59912195 50.3125 71.8125 C50.60205566 72.44542969 50.89161133 73.07835937 51.18994141 73.73046875 C65.79900873 106.11166752 47.49909824 157.06014262 35.71606445 188.48342896 C31.05172342 200.80485115 26.07086539 212.95966763 20.3125 224.8125 C19.9707373 225.51665039 19.62897461 226.22080078 19.27685547 226.94628906 C6.98231896 251.90810028 -9.40125742 274.90964047 -27.6875 295.8125 C-28.285625 296.53308594 -28.88375 297.25367188 -29.5 297.99609375 C-33.042303 302.22812402 -36.91272231 306.04531289 -40.9375 309.8125 C-41.45755615 310.30637207 -41.9776123 310.80024414 -42.51342773 311.30908203 C-46.33144594 314.8125 -46.33144594 314.8125 -49.6875 314.8125 C-49.6875 296.3325 -49.6875 277.8525 -49.6875 258.8125 C-68.4975 258.8125 -87.3075 258.8125 -106.6875 258.8125 C-104.7075 256.5025 -102.7275 254.1925 -100.6875 251.8125 C-87.63754693 236.36368632 -76.17837993 220.17060145 -65.86132812 202.78125 C-64.8557023 201.09460969 -63.8284118 199.42091911 -62.796875 197.75 C-45.15183818 169.30523794 -45.15183818 169.30523794 -36.6875 137.8125 C-36.0275 137.8125 -35.3675 137.8125 -34.6875 137.8125 C-34.52024414 137.1728833 -34.35298828 136.5332666 -34.18066406 135.87426758 C-32.4918066 129.53765171 -30.58965459 123.29745075 -28.57861328 117.05639648 C-23.71065231 101.88489723 -19.87760232 86.65821576 -16.43847656 71.10449219 C-15.71512148 67.93358195 -14.92766999 64.78634092 -14.1171875 61.63671875 C-12.69846275 56.0235236 -11.62105632 50.39973131 -10.6875 44.6875 C-10.51871338 43.67776123 -10.34992676 42.66802246 -10.17602539 41.62768555 C-8.70629341 32.54984735 -7.66417367 23.43468112 -6.81445312 14.27880859 C-6.65686523 12.72734131 -6.65686523 12.72734131 -6.49609375 11.14453125 C-6.41157959 10.23421143 -6.32706543 9.3238916 -6.23999023 8.38598633 C-5.35154892 4.24764787 -4.18130787 1.26411633 0 0 Z " fill="#EEB92C" transform="translate(444.6875,96.1875)"/>
<path d="M0 0 C0 6.27 0 12.54 0 19 C1.62785431 18.98889694 3.25570862 18.97779388 4.93289185 18.96635437 C20.26519896 18.86504687 35.59740222 18.78976676 50.92996407 18.74093914 C58.81282121 18.71516788 66.69542834 18.68003832 74.578125 18.62280273 C81.44946902 18.57293431 88.32063195 18.54070114 95.1921519 18.52955753 C98.82998058 18.52304444 102.46729127 18.50776045 106.10495377 18.47134972 C110.16802096 18.4310116 114.23019021 18.43005274 118.29345703 18.43237305 C119.49683212 18.41439667 120.70020721 18.39642029 121.94004822 18.37789917 C131.0348147 18.43419015 131.0348147 18.43419015 134.73947144 21.39070129 C137.01697549 24.01959459 137.81011419 25.15048928 138 28.5625 C138.0928125 29.67818359 138.0928125 29.67818359 138.1875 30.81640625 C137.97524739 33.28826479 137.23696257 34.86913869 136 37 C135.34 37 134.68 37 134 37 C133.74476563 37.89074219 133.48953125 38.78148437 133.2265625 39.69921875 C126.24661178 58.48284409 101.12228445 78.22707045 86 91 C85.01 91.86753906 84.02 92.73507813 83 93.62890625 C50.48966815 122.05476424 50.48966815 122.05476424 40.0625 122.625 C32.00024893 122.07244697 24.89625982 118.44816754 17.6875 115.0625 C7.9663454 110.51606107 -1.97098959 107.16363886 -12.3125 104.375 C-13.02164551 104.18091553 -13.73079102 103.98683105 -14.46142578 103.78686523 C-28.77813351 100.06325845 -42.73715278 98.38857171 -57.5 98.4375 C-58.32095154 98.43698639 -59.14190308 98.43647278 -59.98773193 98.4359436 C-77.98828458 98.48369101 -95.44168193 101.05660692 -111.765625 109.1171875 C-114.33845613 110.13372567 -116.2567797 110.23648451 -119 110 C-120.92398723 108.07601277 -120.16706643 105.22493955 -120.19018555 102.66430664 C-120.17972889 92.29035373 -119.62258764 82.24900296 -118 72 C-117.81695312 70.83726562 -117.63390625 69.67453125 -117.4453125 68.4765625 C-115.31250612 57.39123552 -110.4322731 47.50255191 -101 41 C-100.113125 40.36578125 -99.22625 39.7315625 -98.3125 39.078125 C-92.51509349 35.0622132 -86.63694694 31.64984854 -80.27734375 28.61328125 C-77.92437333 27.45502525 -75.65790616 26.26776494 -73.37890625 24.98046875 C-52.87770117 13.48054202 -24.09931325 0 0 0 Z " fill="#DEAD28" transform="translate(139,158)"/>
<path d="M0 0 C0.86157715 -0.00988449 1.7231543 -0.01976898 2.61083984 -0.029953 C38.8069007 -0.35984806 38.8069007 -0.35984806 54.8046875 4.23828125 C55.75859375 4.50672852 56.7125 4.77517578 57.6953125 5.05175781 C81.64730704 11.98401777 111.55458348 24.22499524 127.8046875 44.23828125 C128.0546875 47.36328125 128.0546875 47.36328125 127.8046875 50.23828125 C126.8046875 51.23828125 126.8046875 51.23828125 123.91736507 51.36132908 C122.613028 51.36040729 121.30869093 51.35948549 119.96482849 51.35853577 C118.8793637 51.3598174 118.8793637 51.3598174 117.77197033 51.36112493 C115.32899404 51.36278187 112.88608528 51.3572549 110.44311523 51.35180664 C108.69914756 51.35152479 106.95517976 51.35168246 105.21121216 51.35224915 C100.46141255 51.3525372 95.71163797 51.34663922 90.96184421 51.33967519 C86.00370328 51.33344294 81.04556184 51.33283795 76.0874176 51.33164978 C66.69158922 51.32853608 57.29577241 51.32032218 47.89994913 51.31030029 C37.20605601 51.29914034 26.51216234 51.293629 15.81826484 51.28860486 C-6.18626758 51.27813959 -28.19078891 51.26033904 -50.1953125 51.23828125 C-50.1953125 60.47828125 -50.1953125 69.71828125 -50.1953125 79.23828125 C-53.3715625 79.85703125 -56.5478125 80.47578125 -59.8203125 81.11328125 C-85.15294627 86.42367341 -126.48114422 96.52411297 -145.1953125 115.23828125 C-147.9545398 115.52872623 -149.63228926 115.55732775 -152.0703125 114.17578125 C-153.47655087 111.75392628 -153.23621568 110.17021502 -152.78857422 107.46166992 C-151.47156688 102.5258733 -149.06121722 97.99551002 -146.8203125 93.42578125 C-146.00892822 91.76071533 -146.00892822 91.76071533 -145.18115234 90.06201172 C-136.84727267 73.21672882 -126.66675463 58.09825644 -115.1953125 43.23828125 C-114.11830078 41.81322266 -114.11830078 41.81322266 -113.01953125 40.359375 C-91.77353878 14.19996243 -43.26109613 4.32633871 -11.3777771 0.44845581 C-7.58858115 0.08355065 -3.80451864 0.03574801 0 0 Z " fill="#F8C12D" transform="translate(189.1953125,66.76171875)"/>
<path d="M0 0 C3.13773908 4.37381812 3.97162046 9.57354129 5.125 14.75 C17.64560374 67.19801402 43.82310709 118.37334041 78 160 C78.42474609 160.52770996 78.84949219 161.05541992 79.28710938 161.59912109 C86.04880266 169.97963126 93.47548989 177.68150676 101.0625 185.3125 C101.97233643 186.23160156 102.88217285 187.15070313 103.81958008 188.09765625 C109.90523406 194.15540693 116.24607258 199.700337 123 205 C123.75627686 205.59530518 124.51255371 206.19061035 125.29174805 206.80395508 C137.56130169 216.32603623 150.50264354 224.34773305 164 232 C165.38048208 232.78858348 166.76072507 233.57758579 168.140625 234.3671875 C169.08421875 234.90601563 170.0278125 235.44484375 171 236 C171 237.32 171 238.64 171 240 C165.45956975 240.18418984 160.42485971 239.54037398 155 238.4375 C153.71416016 238.17731079 153.71416016 238.17731079 152.40234375 237.91186523 C145.50363311 236.44837077 138.74942258 234.60120305 132 232.5625 C130.62328125 232.14859009 130.62328125 232.14859009 129.21875 231.72631836 C109.06315024 225.44398298 88.44673521 215.91752999 71 204 C70.35160156 203.56220215 69.70320313 203.1244043 69.03515625 202.67333984 C59.18296222 195.99599274 49.91007218 188.88565211 41 181 C40.11828125 180.22914063 39.2365625 179.45828125 38.328125 178.6640625 C28.68034364 170.12487714 19.96007194 161.13473077 12 151 C11.20851562 150.01386719 10.41703125 149.02773438 9.6015625 148.01171875 C-7.73042011 126.05969661 -20.9467232 101.45287289 -30 75 C-30.27392578 74.2255957 -30.54785156 73.45119141 -30.83007812 72.65332031 C-36.7385831 55.87458991 -44.39197776 33.89560683 -41 16 C-38.40472625 10.8913422 -35.33256297 8.58306735 -30.1875 6.375 C-29.20813477 5.93897461 -29.20813477 5.93897461 -28.20898438 5.49414062 C-9.10525257 -2.71406567 -9.10525257 -2.71406567 0 0 Z " fill="#F9C12E" transform="translate(62,271)"/>
<path d="M0 0 C2.85416917 2.38452025 3.474865 4.08844737 3.94921875 7.7421875 C4.07538574 8.71091797 4.20155273 9.67964844 4.33154297 10.67773438 C4.44900879 11.73283203 4.56647461 12.78792969 4.6875 13.875 C4.8127002 14.97908203 4.93790039 16.08316406 5.06689453 17.22070312 C11.63737556 81.11974853 -8.56327135 145.90215831 -49 195.6328125 C-51.87931592 199.04075282 -54.8561361 202.35278862 -57.8671875 205.64453125 C-59.69495717 207.66311204 -61.44346194 209.72228353 -63.1875 211.8125 C-77.25973791 227.84905488 -94.92138399 240.59932422 -112.98193359 251.75097656 C-114.31321815 252.57493638 -115.63923962 253.40746946 -116.95947266 254.24902344 C-118.79390365 255.41677356 -120.64315898 256.55581583 -122.5 257.6875 C-124.06234375 258.65236328 -124.06234375 258.65236328 -125.65625 259.63671875 C-133.89108543 262.99414581 -141.64612255 260.32433929 -149.8125 257.8125 C-150.86896729 257.49587402 -151.92543457 257.17924805 -153.01391602 256.85302734 C-171.91682926 251.08317074 -171.91682926 251.08317074 -175 248 C-175.58203125 245.2578125 -175.58203125 245.2578125 -175 242 C-172.52722747 239.77785182 -169.63081907 238.38811273 -166.6875 236.875 C-164.93562767 235.91878691 -163.18567902 234.95904248 -161.4375 233.99609375 C-160.53515625 233.5047998 -159.6328125 233.01350586 -158.703125 232.50732422 C-141.22301751 222.76001717 -125.05144055 211.14465428 -110 198 C-109.24976563 197.3503125 -108.49953125 196.700625 -107.7265625 196.03125 C-105.80897801 194.36378523 -103.90295184 192.68413191 -102 191 C-101.23816406 190.33097656 -100.47632813 189.66195312 -99.69140625 188.97265625 C-98.90636719 188.28042969 -98.12132812 187.58820313 -97.3125 186.875 C-96.60738281 186.25367188 -95.90226562 185.63234375 -95.17578125 184.9921875 C-90.9123439 181.0885016 -87.10481717 177.01871449 -83.5 172.5 C-80.5162871 168.75985284 -77.39484827 165.3683674 -74 162 C-56.01403991 141.92554888 -41.68237145 118.4045824 -30.80859375 93.80078125 C-30.0601401 92.1339352 -29.26629619 90.48767174 -28.46875 88.84375 C-22.4306283 76.38209457 -18.0077688 63.17392377 -13.67700195 50.03808594 C-13.07735417 48.23287148 -12.45261236 46.4360353 -11.82421875 44.640625 C-8.32520523 34.20370496 -6.13837092 23.55757222 -4.05541992 12.76464844 C-3.81670166 11.54680664 -3.5779834 10.32896484 -3.33203125 9.07421875 C-3.12296143 7.97682373 -2.9138916 6.87942871 -2.69848633 5.7487793 C-2 3 -2 3 0 0 Z " fill="#E3B02A" transform="translate(509,226)"/>
<path d="M0 0 C31.68 0 63.36 0 96 0 C96.495 1.485 96.495 1.485 97 3 C97.60714844 3.29132813 98.21429688 3.58265625 98.83984375 3.8828125 C101.70783884 5.3660794 102.76910334 7.20233543 104.5625 9.875 C109.194791 16.45682129 114.45891655 22.18881942 120 28 C120.65613281 28.70898438 121.31226563 29.41796875 121.98828125 30.1484375 C139.93274619 48.97667694 164.59137919 63.51309449 189 72 C190.39739052 72.51664086 191.79343244 73.03695866 193.1875 73.5625 C193.79078125 73.78808594 194.3940625 74.01367188 195.015625 74.24609375 C197.49649957 75.18863074 199.96840535 76.15200931 202.4375 77.125 C203.28183594 77.45757812 204.12617188 77.79015625 204.99609375 78.1328125 C207 79 207 79 208 80 C208.04063832 81.66617115 208.042721 83.33388095 208 85 C199.68518718 88.7881104 191.55951878 91.32481749 182.625 93.1875 C181.43471191 93.44160645 180.24442383 93.69571289 179.01806641 93.95751953 C156.56145703 98.67891323 136.50018671 100.63914146 115 91 C114.02804687 90.56816406 113.05609375 90.13632812 112.0546875 89.69140625 C87.18959332 78.41963751 63.60823985 65.10534637 43 47 C42.10023438 46.20980469 41.20046875 45.41960937 40.2734375 44.60546875 C25.38203412 31.21926113 10.372835 17.28805833 0 0 Z " fill="#CC9E25" transform="translate(142,414)"/>
<path d="M0 0 C1.28132812 0.2165625 2.56265625 0.433125 3.8828125 0.65625 C10.0029112 1.91936619 15.12039205 3.86485549 19 9 C21.03847522 15.0588259 20.24330289 22.03788303 20.25 28.375 C20.25133942 29.1128775 20.25267883 29.850755 20.25405884 30.61099243 C20.25034585 40.04083801 19.97012314 49.32892023 18.6875 58.6875 C18.56987305 59.55745605 18.45224609 60.42741211 18.33105469 61.32373047 C17.59161444 66.04499028 16.41929743 69.80519577 14 74 C9.16097396 74.58097729 6.75895254 73.52629823 2.95361328 70.54614258 C2.3501709 70.05654053 1.74672852 69.56693848 1.125 69.0625 C-19.87660409 52.89517819 -45.11007441 42.20597423 -71 37 C-71.7336377 36.84756836 -72.46727539 36.69513672 -73.22314453 36.53808594 C-103.00515721 30.55194664 -134.12529699 33.69784438 -163.3828125 40.9140625 C-167.24582453 41.86039741 -171.05305659 42.51866544 -175 43 C-175.66 41.68 -176.32 40.36 -177 39 C-173.41369288 34.89726466 -169.11271103 32.48047829 -164.4375 29.8125 C-163.603396 29.33417725 -162.76929199 28.85585449 -161.90991211 28.36303711 C-150.34968875 21.82946883 -138.41156391 15.63696056 -125.640625 11.8515625 C-122.84915387 10.99966275 -122.84915387 10.99966275 -119.6796875 9.55078125 C-106.21621918 3.87668685 -91.34417603 1.36233662 -77 -1 C-76.30100586 -1.12004395 -75.60201172 -1.24008789 -74.88183594 -1.36376953 C-50.67727671 -5.36211006 -24.05710425 -4.23647119 0 0 Z " fill="#FAC22E" transform="translate(308,21)"/>
<path d="M0 0 C24.47702519 0.61695003 49.77045401 8.95260996 71.88916016 19.06445312 C72.64471191 19.40387939 73.40026367 19.74330566 74.17871094 20.09301758 C81.49015127 23.61933172 87.55421003 29.27142372 91.32666016 36.50195312 C90.99333873 40.43365472 89.94417139 42.37894028 87.15551758 45.11132812 C86.48779831 45.77551758 85.82007904 46.43970703 85.13212585 47.12402344 C84.40612686 47.82624023 83.68012787 48.52845703 82.93212891 49.25195312 C82.18836502 49.98768555 81.44460114 50.72341797 80.67829895 51.48144531 C78.29951419 53.83124083 75.90752107 56.16701378 73.51416016 58.50195312 C71.13411867 60.83939502 68.75692888 63.17966641 66.38215637 65.52246094 C64.90441253 66.97862816 63.42318214 68.43126796 61.93803406 69.87988281 C60.04696309 71.73468844 58.18386422 73.61335362 56.32666016 75.50195312 C55.51398682 76.30076904 54.70131348 77.09958496 53.86401367 77.92260742 C51.58317216 81.7493647 51.82692788 85.14944932 51.93603516 89.52148438 C51.94452484 90.8093409 51.94452484 90.8093409 51.95318604 92.12321472 C51.97550229 94.85420472 52.02568849 97.58386252 52.07666016 100.31445312 C52.09673136 102.17055391 52.11498105 104.02667535 52.13134766 105.8828125 C52.17535135 110.42303608 52.24434494 114.96226906 52.32666016 119.50195312 C52.94862274 118.87554932 53.57058533 118.24914551 54.21139526 117.60375977 C60.06281651 111.71232755 65.91899103 105.82567137 71.78060722 99.94438171 C74.79422708 96.92030767 77.80595149 93.89439432 80.81347656 90.86425781 C83.71389981 87.94216438 86.61912748 85.0249295 89.52780533 82.11105347 C90.63877367 80.99637887 91.7479751 79.87994047 92.8554039 78.76174927 C94.40227052 77.20044514 95.95520108 75.645431 97.50976562 74.09179688 C98.39356903 73.20355225 99.27737244 72.31530762 100.18795776 71.40014648 C102.32666016 69.50195312 102.32666016 69.50195312 104.32666016 69.50195312 C104.98666016 71.48195313 105.64666016 73.46195312 106.32666016 75.50195312 C105.87866562 75.94772705 105.43067108 76.39350098 104.96910095 76.8527832 C100.27733986 81.52230037 95.58919815 86.19542931 90.90307617 90.87060547 C89.15724429 92.61143034 87.41051318 94.3513539 85.6628418 96.09033203 C83.14081665 98.60013179 80.62211819 101.11323029 78.10400391 103.62695312 C77.33080307 104.39499268 76.55760223 105.16303223 75.76097107 105.9543457 C71.60816743 110.10672561 67.62883643 114.33869927 63.82627869 118.81524658 C61.72401426 121.17978336 59.33877758 123.1806697 56.95166016 125.25195312 C52.99129085 129.10431236 51.64362462 131.60239734 51.20166016 137.12695312 C51.19714594 138.91909854 51.22214224 140.71285236 51.32666016 142.50195312 C47.90847904 139.33293328 45.31463933 135.81282045 42.76416016 131.93945312 C42.11616455 130.9581543 42.11616455 130.9581543 41.45507812 129.95703125 C22.81360862 101.36853257 8.17875716 70.65891533 -2.61083984 38.31445312 C-2.83845001 37.63320374 -3.06606018 36.95195435 -3.30056763 36.25006104 C-12.35295928 8.99185031 -12.35295928 8.99185031 -11.67333984 2.50195312 C-8.45056307 -0.72082365 -4.33497713 0.00358633 0 0 Z " fill="#F4BE2D" transform="translate(87.67333984375,267.498046875)"/>
<path d="M0 0 C44.55 0 89.1 0 135 0 C129.36878109 6.75746269 129.36878109 6.75746269 126.3203125 9.078125 C125.64645508 9.59415283 124.97259766 10.11018066 124.27832031 10.6418457 C123.56772461 11.17253662 122.85712891 11.70322754 122.125 12.25 C121.00496582 13.09534302 121.00496582 13.09534302 119.86230469 13.95776367 C112.76265639 19.26747736 105.46278389 24.21886881 98 29 C97.39043457 29.39654785 96.78086914 29.7930957 96.15283203 30.20166016 C94.3793957 31.35361574 92.59791183 32.49171568 90.8125 33.625 C89.78769531 34.27726562 88.76289063 34.92953125 87.70703125 35.6015625 C85 37 85 37 81 37 C81 37.66 81 38.32 81 39 C60.94628586 49.61411334 60.94628586 49.61411334 50 48 C47.46550061 47.20513012 45.36838849 46.23568095 43 45 C43 44.34 43 43.68 43 43 C40.34771188 41.92474806 37.71631546 40.90543849 35 40 C35 39.34 35 38.68 35 38 C34.46375 37.93425781 33.9275 37.86851562 33.375 37.80078125 C30.00057562 36.66302303 27.64488834 34.48927624 25 32.1875 C24.43837158 31.70482666 23.87674316 31.22215332 23.2980957 30.72485352 C19.13079278 27.09556762 15.11690504 23.3223607 11.1875 19.4375 C10.66607422 18.92533936 10.14464844 18.41317871 9.60742188 17.88549805 C6 14.24687222 6 14.24687222 6 12 C5.34 12 4.68 12 4 12 C1.01362252 8.83262995 -0.64471819 6.38180897 -1 2 C-0.67 1.34 -0.34 0.68 0 0 Z " fill="#7F6318" transform="translate(258,414)"/>
<path d="M0 0 C1.52399912 3.95036615 0.50739257 7.42792559 -0.5 11.375 C-0.67797119 12.0760083 -0.85594238 12.7770166 -1.03930664 13.49926758 C-3.67459727 23.19255399 -7.62931515 32.0115873 -15 39 C-15.70125 39.94875 -16.4025 40.8975 -17.125 41.875 C-27.29761748 54.15772698 -45.79179877 59.16535985 -61 61 C-63.33296795 61.04129147 -65.66729576 61.05417894 -68 61 C-65.51053498 58.26827161 -62.72736471 56.42950093 -59.625 54.4375 C-37.33924377 39.73211518 -16.15587279 21.31102308 0 0 Z " fill="#000000" transform="translate(474,433)"/>
<path d="M0 0 C11.55 0 23.1 0 35 0 C31.34690184 4.26194785 27.91515427 8.08484573 24 12 C21.63629789 14.64062119 19.3124048 17.31441172 17 20 C16.67 19.34 16.34 18.68 16 18 C7.68021566 18.29747505 7.68021566 18.29747505 1 23 C1.66 21.35 2.32 19.7 3 18 C3.66 18 4.32 18 5 18 C6.18039714 11.41586552 6.18039714 11.41586552 4.75 5.0625 C3.25289353 3.29805309 1.63624581 1.63624581 0 0 Z " fill="#63615D" transform="translate(270,177)"/>
<path d="M0 0 C0.66 0.33 1.32 0.66 2 1 C2.33333333 2.66666667 2.66666667 4.33333333 3 6 C3.66 6.33 4.32 6.66 5 7 C-10.84 22.84 -26.68 38.68 -43 55 C-43 52 -43 52 -41.63330078 50.27253723 C-40.99376465 49.63966293 -40.35422852 49.00678864 -39.6953125 48.35473633 C-38.97456543 47.63421585 -38.25381836 46.91369537 -37.51123047 46.17134094 C-36.72377441 45.39936874 -35.93631836 44.62739655 -35.125 43.83203125 C-33.92641357 42.63981209 -33.92641357 42.63981209 -32.70361328 41.42350769 C-30.14267606 38.87940146 -27.57151863 36.34590608 -25 33.8125 C-23.26494326 32.0924843 -21.53055926 30.3717897 -19.796875 28.65039062 C-15.53903311 24.42567671 -11.27274757 20.20963524 -7 16 C-7.66 13.69 -8.32 11.38 -9 9 C-6.03 6.03 -3.06 3.06 0 0 Z " fill="#2889B1" transform="translate(200,327)"/>
<path d="M0 0 C0.66 0.33 1.32 0.66 2 1 C2.66 2.98 3.32 4.96 4 7 C1.03 9.97 -1.94 12.94 -5 16 C-7 15 -7 15 -9 9 C-6.03 6.03 -3.06 3.06 0 0 Z " fill="#ADB1B1" transform="translate(200,327)"/>
<path d="M0 0 C0.66 0.33 1.32 0.66 2 1 C-0.31 3.31 -2.62 5.62 -5 8 C-5.33 7.34 -5.66 6.68 -6 6 C-4 4 -2 2 0 0 Z " fill="#EDBD3D" transform="translate(197,286)"/>
</svg>
